<?xml version="1.0" encoding="iso-8859-1"?>
<!-- Generator: Adobe Illustrator 18.0.0, SVG Export Plug-In . SVG Version: 6.00 Build 0)  -->
<!DOCTYPE svg PUBLIC "-//W3C//DTD SVG 1.1//EN" "http://www.w3.org/Graphics/SVG/1.1/DTD/svg11.dtd">
<svg version="1.1" id="Capa_1" xmlns="http://www.w3.org/2000/svg" xmlns:xlink="http://www.w3.org/1999/xlink" x="0px" y="0px"
	 viewBox="0 0 460 460" style="enable-background:new 0 0 460 460;" xml:space="preserve">
<g id="XMLID_1446_">
	<g id="XMLID_1856_">
		<path id="XMLID_2422_" style="fill:#ECF0F1;" d="M60.438,68.311v227.442c0,15.095,12.237,27.332,27.332,27.332h344.898
			c15.095,0,27.332-12.237,27.332-27.332V68.311H60.438z"/>
	</g>
	<g id="XMLID_1859_">
		<path id="XMLID_2421_" style="fill:#D2D7D8;" d="M460,38.153c0-15.095-12.237-27.332-27.332-27.332H87.77
			c-15.095,0-27.332,12.237-27.332,27.332v30.157H460V38.153z"/>
	</g>
	<g id="XMLID_338_">
		<path id="XMLID_3031_" style="fill:#E67E22;" d="M110.803,48.776H90.657c-4.272,0-7.735-3.463-7.735-7.735
			s3.463-7.735,7.735-7.735h20.146c4.272,0,7.735,3.463,7.735,7.735S115.075,48.776,110.803,48.776z"/>
	</g>
	<g id="XMLID_337_">
		<path id="XMLID_3030_" style="fill:#E67E22;" d="M161.168,48.776h-20.146c-4.272,0-7.735-3.463-7.735-7.735
			s3.463-7.735,7.735-7.735h20.146c4.272,0,7.735,3.463,7.735,7.735S165.44,48.776,161.168,48.776z"/>
	</g>
	<g id="XMLID_1857_">
		<path id="XMLID_2420_" style="fill:#8FA6B4;" d="M399.562,138.883c0-15.095-12.237-27.332-27.332-27.332H27.332
			C12.237,111.551,0,123.788,0,138.883v31.53h399.562V138.883z"/>
	</g>
	<g id="XMLID_1858_">
		<path id="XMLID_2419_" style="fill:#ACBDC6;" d="M0,170.413v226.069c0,15.095,12.237,27.332,27.332,27.332H372.23
			c15.095,0,27.332-12.237,27.332-27.332V170.413H0z"/>
	</g>
	<path id="XMLID_1945_" style="opacity:0.49;fill:#D0D5D9;" d="M380.309,170.413v205.106c0,15.095-12.237,27.332-27.332,27.332
		H8.079c-2.624,0-5.159-0.377-7.561-1.068c2.469,12.557,13.533,22.031,26.814,22.031H372.23c15.095,0,27.332-12.237,27.332-27.332
		V170.413H380.309z"/>
	<g id="XMLID_222_">
		<path id="XMLID_3029_" style="fill:#FFCD02;" d="M50.365,149.506H30.219c-4.272,0-7.735-3.463-7.735-7.735
			s3.463-7.735,7.735-7.735h20.146c4.272,0,7.735,3.463,7.735,7.735S54.637,149.506,50.365,149.506z"/>
	</g>
	<g id="XMLID_238_">
		<path id="XMLID_3028_" style="fill:#FFCD02;" d="M100.73,149.506H80.584c-4.272,0-7.735-3.463-7.735-7.735
			s3.463-7.735,7.735-7.735h20.146c4.272,0,7.735,3.463,7.735,7.735S105.002,149.506,100.73,149.506z"/>
	</g>
	<g id="XMLID_237_">
		<path id="XMLID_3027_" style="fill:#FFCF6D;" d="M251.825,230.09H40.292c-4.272,0-7.735-3.463-7.735-7.735
			s3.463-7.735,7.735-7.735h211.533c4.272,0,7.735,3.463,7.735,7.735S256.097,230.09,251.825,230.09z"/>
	</g>
	<g id="XMLID_311_">
		<path id="XMLID_3026_" style="fill:#FFCF6D;" d="M282.044,290.528H40.292c-4.272,0-7.735-3.463-7.735-7.735
			c0-4.272,3.463-7.735,7.735-7.735h241.752c4.272,0,7.735,3.463,7.735,7.735C289.779,287.065,286.316,290.528,282.044,290.528z"/>
	</g>
	<g id="XMLID_334_">
		<path id="XMLID_3025_" style="fill:#FFCF6D;" d="M261.898,381.185H40.292c-4.272,0-7.735-3.463-7.735-7.735
			c0-4.272,3.463-7.735,7.735-7.735h221.606c4.272,0,7.735,3.463,7.735,7.735C269.633,377.721,266.17,381.185,261.898,381.185z"/>
	</g>
	<g id="XMLID_309_">
		<path id="XMLID_3024_" style="fill:#FFCF6D;" d="M161.168,260.309H40.292c-4.272,0-7.735-3.463-7.735-7.735
			s3.463-7.735,7.735-7.735h120.876c4.272,0,7.735,3.463,7.735,7.735S165.44,260.309,161.168,260.309z"/>
	</g>
	<g id="XMLID_312_">
		<path id="XMLID_3023_" style="fill:#FFCF6D;" d="M211.533,320.747H40.292c-4.272,0-7.735-3.463-7.735-7.735
			c0-4.272,3.463-7.735,7.735-7.735h171.241c4.272,0,7.735,3.463,7.735,7.735C219.268,317.284,215.805,320.747,211.533,320.747z"/>
	</g>
	<g id="XMLID_333_">
		<path id="XMLID_3022_" style="fill:#FFCF6D;" d="M191.387,350.966H40.292c-4.272,0-7.735-3.463-7.735-7.735
			c0-4.272,3.463-7.735,7.735-7.735h151.095c4.272,0,7.735,3.463,7.735,7.735C199.122,347.502,195.659,350.966,191.387,350.966z"/>
	</g>
	<g id="XMLID_451_">
		<path id="XMLID_2654_" style="fill:#F9B65F;" d="M411.36,354.947v-25.524c0-17.928-14.533-32.461-32.461-32.461
			s-32.461,14.533-32.461,32.461v25.524H320.97v-27.723c0-31.993,25.936-57.929,57.929-57.929s57.929,25.936,57.929,57.929v27.723
			H411.36z"/>
	</g>
	<g id="XMLID_450_">
		<path id="XMLID_2418_" style="fill:#DE3E30;" d="M430.063,449.178H327.735c-16.534,0-29.937-13.403-29.937-29.937v-64.295H460
			v64.295C460,435.775,446.597,449.178,430.063,449.178z"/>
	</g>
	<path id="XMLID_2625_" style="opacity:0.49;fill:#D0D5D9;" d="M444.873,354.947v49.376c0,17.052-13.824,30.876-30.876,30.876
		H313.548c-4.329,0-8.449-0.895-12.189-2.503c5.175,9.8,15.462,16.483,27.316,16.483h100.449c17.053,0,30.876-13.824,30.876-30.876
		v-63.355H444.873z"/>
	<g id="XMLID_449_">
		<path id="XMLID_3021_" style="fill:#FFFFFF;" d="M378.899,421.384c-4.272,0-7.735-3.463-7.735-7.735v-23.172
			c0-4.272,3.463-7.735,7.735-7.735c4.272,0,7.735,3.463,7.735,7.735v23.172C386.635,417.921,383.171,421.384,378.899,421.384z"/>
	</g>
</g>
<g>
</g>
<g>
</g>
<g>
</g>
<g>
</g>
<g>
</g>
<g>
</g>
<g>
</g>
<g>
</g>
<g>
</g>
<g>
</g>
<g>
</g>
<g>
</g>
<g>
</g>
<g>
</g>
<g>
</g>
</svg>
