<svg id="Layer_1" data-name="Layer 1" xmlns="http://www.w3.org/2000/svg" viewBox="0 0 158.88 158.88"><defs><style>.cls-1{fill:#7dc576;}.cls-2{fill:none;stroke:#676868;stroke-linecap:round;stroke-linejoin:round;stroke-width:6px;}</style></defs><title>BlockedAccount</title><rect class="cls-1" x="38.33" y="38.42" width="85.86" height="85.86" rx="42.93" ry="42.93"/><circle class="cls-1" cx="111.83" cy="81.02" r="17.29"/><path class="cls-1" d="M139.64,119.68A19.69,19.69,0,1,1,159.33,100,19.71,19.71,0,0,1,139.64,119.68Zm0-34.58A14.89,14.89,0,1,0,154.53,100,14.91,14.91,0,0,0,139.64,85.1Z" transform="translate(-27.81 -18.97)"/><path class="cls-2" d="M183.69,98.41a76.43,76.43,0,1,1-17.2-48.31A76.44,76.44,0,0,1,183.69,98.41Z" transform="translate(-27.81 -18.97)"/><line class="cls-2" x1="129.95" y1="133.91" x2="25.83" y2="29.8"/><line class="cls-2" x1="30.84" y1="133.91" x2="134.96" y2="29.8"/></svg>