<?xml version="1.0" encoding="utf-8"?>
<!-- Generator: Adobe Illustrator 21.1.0, SVG Export Plug-In . SVG Version: 6.00 Build 0)  -->
<svg version="1.1" id="Layer_1" xmlns="http://www.w3.org/2000/svg" xmlns:xlink="http://www.w3.org/1999/xlink" x="0px" y="0px"
	 viewBox="0 0 158.9 158.9" style="enable-background:new 0 0 158.9 158.9;" xml:space="preserve">
<style type="text/css">
	.st0{clip-path:url(#SVGID_2_);}
	.st1{clip-path:url(#SVGID_4_);fill:#7DC576;}
	.st2{clip-path:url(#SVGID_6_);fill:#FFFFFF;}
	.st3{clip-path:url(#SVGID_6_);fill:#7DC576;}
	.st4{fill:#7DC576;}
	.st5{fill:none;stroke:#676868;stroke-width:6;stroke-linecap:round;stroke-linejoin:round;}
</style>
<g id="Icon">
	<g>
		<defs>
			<rect id="SVGID_1_" x="27.3" y="21" width="104.4" height="115.2"/>
		</defs>
		<clipPath id="SVGID_2_">
			<use xlink:href="#SVGID_1_"  style="overflow:visible;"/>
		</clipPath>
		<g class="st0">
			<defs>
				<rect id="SVGID_3_" x="27.3" y="21" width="104.4" height="115.2"/>
			</defs>
			<clipPath id="SVGID_4_">
				<use xlink:href="#SVGID_3_"  style="overflow:visible;"/>
			</clipPath>
			<path class="st1" d="M90.2,55c-2.6-0.5-5.1-0.9-7.7-1c-1-0.1-2.1-0.1-3.1-0.1c-3.1,0-6.3,0.3-9.4,0.8c-6.5,1.1-12.8,3.4-18.4,6.8
				c-3.7,2.2-7.2,4.8-10.3,7.8c-0.8,0.8-1.2,1.8-1,2.9l5,39.8c8.1,9.9,20.4,16.2,34.1,16.2s26-6.3,34.1-16.2l0.8-6
				c4.7-2.5,7.6-7.5,7.6-13.2c0-4.3-1.6-8.3-4.5-11l1.2-9.5c0.1-1-0.2-2.1-1-2.8c-4.5-4.3-9.6-7.8-15.2-10.4
				C98.5,57.2,94.4,55.9,90.2,55 M74.6,103.4c-1.5,0.8-3.2,1.2-5,1.2c-6.3,0-11.1-5.1-11.1-11.9c0-6.8,4.8-11.9,11.1-11.9
				c2.8,0,5.3,1,7.2,2.7c2.4,2.1,3.9,5.4,3.9,9.2C80.7,97.6,78.3,101.5,74.6,103.4 M112.9,103.4c-1.5,0.8-3.2,1.2-5,1.2
				c-6.3,0-11.1-5.1-11.1-11.9c0-6.8,4.8-11.9,11.1-11.9c2.8,0,5.3,1,7.2,2.7c2.4,2.1,3.9,5.4,3.9,9.2
				C119,97.6,116.6,101.5,112.9,103.4"/>
			<path class="st1" d="M61.4,57c-1.2-7.9-2.5-16-3.5-22.5c-3.1,0.2-6-1.9-6.8-5c-1-3.7,1.2-7.4,4.9-8.3c3.5-0.8,7.2,1.4,8.1,4.9
				c0.8,3.1-0.7,6.3-3.4,7.7L68.8,55l0,0C66.3,55.5,63.8,56.2,61.4,57L61.4,57z"/>
			<path class="st1" d="M90.2,55l8.2-21.3c-2.8-1.4-4.3-4.6-3.4-7.7c1-3.7,4.8-5.8,8.4-4.7c3.2,1,5.3,4.3,4.7,7.7
				c-0.6,3.4-3.7,5.7-6.9,5.5c-1,6.5-2.3,14.7-3.5,22.6l0,0C95.2,56.2,92.8,55.5,90.2,55L90.2,55z"/>
		</g>
		<g class="st0">
			<defs>
				<rect id="SVGID_5_" x="27.3" y="21" width="104.4" height="115.2"/>
			</defs>
			<clipPath id="SVGID_6_">
				<use xlink:href="#SVGID_5_"  style="overflow:visible;"/>
			</clipPath>
			<path class="st2" d="M74.6,103.4c-1.5,0.8-3.2,1.2-5,1.2c-6.3,0-11.1-5.1-11.1-11.9c0-6.8,4.8-11.9,11.1-11.9
				c2.8,0,5.3,1,7.2,2.7c2.4,2.1,3.9,5.4,3.9,9.2C80.7,97.6,78.3,101.5,74.6,103.4"/>
			<path class="st2" d="M112.9,103.4c-1.5,0.8-3.2,1.2-5,1.2c-6.3,0-11.1-5.1-11.1-11.9c0-6.8,4.8-11.9,11.1-11.9
				c2.8,0,5.3,1,7.2,2.7c2.4,2.1,3.9,5.4,3.9,9.2C119,97.6,116.6,101.5,112.9,103.4"/>
			<path class="st3" d="M108.8,88.4c-0.7-1.1-1.8-1.7-2.9-1.7c-1.1,0-2.1,0.5-2.9,1.5c0,0,0,0,0,0c-0.8,1.2-1.2,2.5-1.2,4.1
				c0,1.6,0.4,3,1.1,4.2c0.8,1.2,1.7,1.7,2.8,1.7c1.1,0,2.1-0.5,2.9-1.7c0.8-1.1,1.3-2.4,1.3-4.1C109.9,90.9,109.6,89.6,108.8,88.4
				 M106.6,92c-0.8,0-1.4-0.6-1.4-1.4c0-0.8,0.6-1.4,1.4-1.4c0.8,0,1.4,0.6,1.4,1.4C108,91.4,107.4,92,106.6,92"/>
			<path class="st3" d="M70.5,88.4c-0.7-1.1-1.8-1.7-2.9-1.7c-1.1,0-2.1,0.5-2.9,1.5c0,0,0,0,0,0c-0.8,1.2-1.2,2.5-1.2,4.1
				c0,1.6,0.4,3,1.1,4.2c0.8,1.2,1.7,1.7,2.8,1.7c1.1,0,2.1-0.5,2.9-1.7c0.8-1.1,1.3-2.4,1.3-4.1C71.6,90.9,71.3,89.6,70.5,88.4
				 M68.3,92c-0.8,0-1.4-0.6-1.4-1.4c0-0.8,0.6-1.4,1.4-1.4c0.8,0,1.4,0.6,1.4,1.4C69.7,91.4,69.1,92,68.3,92"/>
		</g>
	</g>
	<polygon class="st4" points="82.9,79.4 82.9,108.5 58.5,106.2 53.2,86.8 56.5,75 	"/>
	<polygon class="st4" points="114,79.4 94.8,81.9 94.8,98.7 99.8,106.8 107.8,106.8 116,103.5 120.2,97.6 120.2,90.2 	"/>
</g>
<title>BlockedAccount</title>
<path class="st5" d="M155.9,79.4c0,42.2-34.2,76.4-76.4,76.4S3,121.6,3,79.4S37.2,3,79.5,3c23,0,44.7,10.3,59.2,28.1
	C149.8,44.8,155.9,61.8,155.9,79.4z"/>
<line class="st5" x1="129.9" y1="133.9" x2="25.8" y2="29.8"/>
<line class="st5" x1="30.8" y1="133.9" x2="135" y2="29.8"/>
</svg>
