<?xml version="1.0" encoding="UTF-8"?>
<svg width="331px" height="200px" viewBox="0 0 331 200" version="1.1" xmlns="http://www.w3.org/2000/svg" xmlns:xlink="http://www.w3.org/1999/xlink">
    <!-- Generator: Sketch 46.2 (44496) - http://www.bohemiancoding.com/sketch -->
    <title>Shape</title>
    <desc>Created with Sketch.</desc>
    <defs></defs>
    <g id="Icons" stroke="none" stroke-width="1" fill="none" fill-rule="evenodd">
        <g id="Shape" fill="#717173" fill-rule="nonzero">
            <path d="M325,19.538462 C321.677258,17.419573 317.506802,17.129958 313.923077,18.769231 L260.076923,43.461538 L260.076923,29.230769 C260.034652,13.104603 246.97232,0.042271 230.846154,0 L29.230769,0 C13.104603,0.042271 0.042271,13.104603 0,29.230769 L0,170.769231 C0.042271,186.895397 13.104603,199.957729 29.230769,200 L231.153846,200 C247.280013,199.957729 260.342345,186.895397 260.384615,170.769231 L260.384615,149.307692 L314.230769,174 C317.76365,175.481802 321.801634,175.113471 325.00811,173.016928 C328.214586,170.920386 330.171378,167.369056 330.230769,163.538462 L330.230769,29.230769 C330.241116,25.322638 328.272495,21.6749 325,19.538462 L325,19.538462 Z"></path>
        </g>
    </g>
</svg>