<?xml version="1.0" encoding="utf-8"?>
<!-- Generator: Adobe Illustrator 20.1.0, SVG Export Plug-In . SVG Version: 6.00 Build 0)  -->
<svg version="1.1" id="Layer_1" xmlns="http://www.w3.org/2000/svg" xmlns:xlink="http://www.w3.org/1999/xlink" x="0px" y="0px"
	 viewBox="0 0 29.6 19" style="enable-background:new 0 0 29.6 19;" xml:space="preserve">
<style type="text/css">
	.st0{fill:none;stroke:#737373;stroke-width:0.7584;stroke-linecap:round;stroke-linejoin:round;}
	.st1{fill:#737373;}
	.st2{fill:#F58263;}
	.st3{fill:#44C0BE;}
	.st4{fill:#F7E352;stroke:#737373;stroke-width:0.7964;stroke-linecap:round;stroke-linejoin:round;}
</style>
<title>ps</title>
<path class="st0" d="M24.8,15H3c0,1.1,1.1,2.1,2.4,2.1h17.1C23.7,17.2,24.8,16.1,24.8,15L24.8,15L24.8,15z"/>
<circle class="st1" cx="6.4" cy="5" r="0.5"/>
<circle class="st1" cx="7.9" cy="5" r="0.5"/>
<polygon class="st2" points="23.3,8.2 16.8,8.2 16.8,6.3 23.3,6.3 "/>
<line class="st0" x1="5.3" y1="6.3" x2="23.2" y2="6.3"/>
<path class="st0" d="M23.3,3.8H5V15h18.4V3.8z"/>
<line class="st0" x1="5" y1="8.2" x2="23.2" y2="8.2"/>
<line class="st0" x1="17.1" y1="6.4" x2="16.4" y2="8.2"/>
<line class="st0" x1="11.4" y1="6.4" x2="10.7" y2="8.2"/>
<rect x="23" y="4.9" class="st3" width="0.7" height="2"/>
<path class="st4" d="M23.3,2.1c-0.2,0-0.4,0.2-0.5,0.4l-3.6,6.3c-0.1,0.2-0.2,0.4-0.1,0.6c0.1,0.2,0.3,0.3,0.5,0.2h7.2
	c0.2,0,0.4-0.1,0.6-0.2c0.1-0.2,0.1-0.4-0.1-0.6l-3.6-6.3C23.7,2.3,23.5,2.2,23.3,2.1z"/>
<path class="st1" d="M23.3,4.4c-0.2,0-0.3,0.1-0.3,0.3v0V7c0,0.2,0.1,0.3,0.3,0.3l0,0h0c0.2,0,0.3-0.1,0.3-0.3l0,0V4.7
	C23.7,4.5,23.6,4.4,23.3,4.4L23.3,4.4L23.3,4.4z"/>
<circle class="st1" cx="23.4" cy="8.2" r="0.4"/>
</svg>
