<svg id="Main_Design" data-name="Main Design" xmlns="http://www.w3.org/2000/svg" viewBox="0 0 82 82"><defs><style>.cls-1{fill:#d9d9d9;}</style></defs><title>icon-</title><path class="cls-1" d="M41,80.93A39.93,39.93,0,1,1,80.93,41,40,40,0,0,1,41,80.93ZM41,4.07A36.93,36.93,0,1,0,77.93,41,37,37,0,0,0,41,4.07Z"/><path class="cls-1" d="M54.43,40.91a1.5,1.5,0,0,0-3,0,10.43,10.43,0,1,1-20.85,0,1.5,1.5,0,0,0-3,0A13.44,13.44,0,0,0,39.5,54.25V62H34.19a1.5,1.5,0,0,0,0,3H47.81a1.5,1.5,0,0,0,0-3H42.5v-7.7A13.44,13.44,0,0,0,54.43,40.91Z"/><path class="cls-1" d="M41,48.54a7,7,0,0,1-6.94-6.94V26.26a6.94,6.94,0,1,1,13.88,0V41.6A7,7,0,0,1,41,48.54Zm0-26.21a3.94,3.94,0,0,0-3.94,3.94V41.6a3.94,3.94,0,1,0,7.88,0V26.26A3.94,3.94,0,0,0,41,22.33Z"/></svg>