<?xml version="1.0" encoding="UTF-8"?>
<svg width="32px" height="24px" viewBox="0 0 32 24" version="1.1" xmlns="http://www.w3.org/2000/svg" xmlns:xlink="http://www.w3.org/1999/xlink">
    <!-- Generator: Sketch 46.2 (44496) - http://www.bohemiancoding.com/sketch -->
    <title>Upload</title>
    <desc>Created with Sketch.</desc>
    <defs></defs>
    <g id="Upload-Blocking" stroke="none" stroke-width="1" fill="none" fill-rule="evenodd">
        <g id="Screen-1" transform="translate(-363.000000, -393.000000)" fill="#676768">
            <path d="M379,393 C381.455396,393 383.919004,393.941312 385.788907,395.811111 C387.065209,397.087474 387.883413,398.64341 388.288889,400.277778 C392.094756,400.977472 395,404.290116 395,408.288907 C395,412.792693 391.326044,416.466684 386.822222,416.466684 L370.111111,416.466684 C366.190009,416.466684 363,413.276676 363,409.355573 C363,405.65488 365.850916,402.642276 369.466667,402.311111 C369.537884,399.952018 370.414151,397.608128 372.211093,395.811111 C374.08096,393.941298 376.544604,393 379,393 Z M379,395.133333 C377.087609,395.133333 375.184853,395.848516 373.722204,397.311111 C372.102649,398.930763 371.391822,401.108082 371.566684,403.222222 C371.591574,403.520173 371.490285,403.814894 371.287488,404.034593 C371.084692,404.254293 370.799005,404.378803 370.500018,404.377796 L370.111111,404.377796 C367.334969,404.377796 365.133333,406.579431 365.133333,409.355573 C365.133333,412.131716 367.334969,414.333351 370.111111,414.333351 L386.822222,414.333351 C390.173049,414.333351 392.866667,411.639733 392.866667,408.288907 C392.866667,405.108747 390.428124,402.511552 387.322204,402.255556 C386.834185,402.216192 386.435612,401.849682 386.355556,401.366667 C386.109262,399.879036 385.424996,398.458354 384.277796,397.311111 C382.815111,395.848501 380.912391,395.133333 379,395.133333 L379,395.133333 Z M381,405.8 L384.192893,405.8 C384.325501,405.8 384.452678,405.747322 384.546447,405.653553 C384.741709,405.458291 384.741709,405.141709 384.546447,404.946447 L384.546447,404.946447 L379.353553,399.753553 L379.353553,399.753553 C379.158291,399.558291 378.841709,399.558291 378.646447,399.753553 L378.646447,399.753553 L373.453553,404.946447 C373.359785,405.040215 373.307107,405.167392 373.307107,405.3 C373.307107,405.576142 373.530964,405.8 373.807107,405.8 L373.807107,405.8 L377,405.8 L377,410.1 C377,410.376142 377.223858,410.6 377.5,410.6 L380.5,410.6 C380.776142,410.6 381,410.376142 381,410.1 L381,405.8 Z" id="Upload"></path>
        </g>
    </g>
</svg>