<svg id="Main_Design" data-name="Main Design" xmlns="http://www.w3.org/2000/svg" viewBox="0 0 82 82"><defs><style>.cls-1{fill:#75d277;}.cls-2{fill:#fff;}</style></defs><title>icon-</title><path class="cls-1" d="M41,1.07A39.93,39.93,0,1,0,80.93,41,40,40,0,0,0,41,1.07Z"/><path class="cls-2" d="M63.4,30.67a1.51,1.51,0,0,0-1.44-.1l-7,3.21V31.94a3.81,3.81,0,0,0-3.8-3.8H25a3.81,3.81,0,0,0-3.8,3.8V50.33a3.81,3.81,0,0,0,3.8,3.8H51.2a3.81,3.81,0,0,0,3.8-3.8V47.54l7,3.21a1.5,1.5,0,0,0,2.13-1.36V31.94A1.5,1.5,0,0,0,63.4,30.67ZM52,36.13v14.2a.8.8,0,0,1-.8.8H25a.81.81,0,0,1-.8-.8V31.94a.81.81,0,0,1,.8-.8H51.2a.8.8,0,0,1,.8.8ZM61.09,47,55,44.24V37.09l6.09-2.81Z"/></svg>