<svg id="Main_Design" data-name="Main Design" xmlns="http://www.w3.org/2000/svg" viewBox="0 0 82 82"><defs><style>.cls-1{fill:#676768;}</style></defs><title>icon-</title><path class="cls-1" d="M41,1.07A39.93,39.93,0,1,0,80.93,41,40,40,0,0,0,41,1.07Zm0,76.85A36.93,36.93,0,1,1,77.93,41,37,37,0,0,1,41,77.93Z"/><path class="cls-1" d="M63.4,31.21a1.5,1.5,0,0,0-1.44-.1l-7,3.21V32.48a3.81,3.81,0,0,0-3.8-3.8H34.42L29,19.07a1.5,1.5,0,1,0-2.61,1.48L31,28.67H25a3.81,3.81,0,0,0-3.8,3.8V50.87a3.81,3.81,0,0,0,3.8,3.8H45.74l5.46,9.61a1.5,1.5,0,1,0,2.61-1.48l-4.62-8.13h2a3.81,3.81,0,0,0,3.8-3.8V48.09l7,3.21a1.5,1.5,0,0,0,2.13-1.36V32.48A1.5,1.5,0,0,0,63.4,31.21ZM25,51.67a.81.81,0,0,1-.8-.8V32.48a.81.81,0,0,1,.8-.8h7.72L44,51.67ZM52,50.87a.8.8,0,0,1-.8.8H47.49l-11.37-20H51.2a.8.8,0,0,1,.8.8V50.87Zm9.09-3.28L55,44.78V37.63l6.09-2.81Z"/></svg>