<svg id="Main_Design" data-name="Main Design" xmlns="http://www.w3.org/2000/svg" viewBox="0 0 82 82"><defs><style>.cls-1{fill:#676768;}</style></defs><title>icon-</title><path class="cls-1" d="M41,80.93A39.93,39.93,0,1,1,80.93,41,40,40,0,0,1,41,80.93ZM41,4.07A36.93,36.93,0,1,0,77.93,41,37,37,0,0,0,41,4.07Z"/><path class="cls-1" d="M57.17,60.45l-7-10.23A13.37,13.37,0,0,0,54,40.91a1.5,1.5,0,0,0-3,0,10.37,10.37,0,0,1-2.51,6.77L46.6,45a6.89,6.89,0,0,0,.87-3.36V26.26a6.93,6.93,0,0,0-13.86-.32l-6.3-9.23a1.5,1.5,0,0,0-2.48,1.69l8.76,12.83V41.6a6.93,6.93,0,0,0,10.94,5.66l1.64,2.41a10.41,10.41,0,0,1-16.07-8.75,1.5,1.5,0,0,0-3,0A13.44,13.44,0,0,0,39,54.25V62H33.72a1.5,1.5,0,0,0,0,3H47.35a1.5,1.5,0,0,0,0-3H42v-7.7a13.33,13.33,0,0,0,5.83-2.1l6.82,10a1.5,1.5,0,0,0,2.48-1.69ZM36.59,26.26a3.94,3.94,0,1,1,7.88,0V41.6c0,.07,0,.14,0,.22L36.59,30.31Zm3.94,19.27a3.94,3.94,0,0,1-3.94-3.94v-6l6.24,9.14A3.9,3.9,0,0,1,40.53,45.54Z"/></svg>