<svg id="Main_Design" data-name="Main Design" xmlns="http://www.w3.org/2000/svg" viewBox="0 0 55 49.68"><defs><style>.cls-1{fill:#676768;}</style></defs><title>icon-</title><path class="cls-1" d="M52.18,2H2.82A1.75,1.75,0,0,0,1.07,3.71V35.44a1.75,1.75,0,0,0,1.75,1.75H23.14v6.34H15.89a.85.85,0,0,0-.85.85v2.25a.85.85,0,0,0,.85.85H39.11a.85.85,0,0,0,.85-.85V44.38a.85.85,0,0,0-.85-.85H31.86V37.19H52.18a1.75,1.75,0,0,0,1.75-1.75V3.71A1.75,1.75,0,0,0,52.18,2Zm-2.3,29.88a.22.22,0,0,1-.22.22H39.51A4.57,4.57,0,0,0,38.64,31c-2-1.73-4.66-1.67-6.41-3.16s-2.07-3.39-.67-5.52a12.39,12.39,0,0,0,2-6.27,6.1,6.1,0,0,0-5.93-6.39,6.1,6.1,0,0,0-5.93,6.39,12.39,12.39,0,0,0,2,6.27c1.4,2.13,1.1,4-.67,5.52S18.54,29.28,16.55,31a4.57,4.57,0,0,0-.87,1.06H5.35a.22.22,0,0,1-.22-.22V7.3a.22.22,0,0,1,.22-.22H49.65a.22.22,0,0,1,.22.22Z"/></svg>