<svg id="Main_Design" data-name="Main Design" xmlns="http://www.w3.org/2000/svg" viewBox="0 0 55 49.68"><defs><style>.cls-1{fill:#676768;}</style></defs><title>icon-</title><path class="cls-1" d="M52.18,2H2.82A1.75,1.75,0,0,0,1.07,3.71V35.44a1.75,1.75,0,0,0,1.75,1.75H23.14v6.34H15.89a.85.85,0,0,0-.85.85v2.25a.85.85,0,0,0,.85.85H39.11a.85.85,0,0,0,.85-.85V44.38a.85.85,0,0,0-.85-.85H31.86V37.19H52.18a1.75,1.75,0,0,0,1.75-1.75V3.71A1.75,1.75,0,0,0,52.18,2ZM49.88,7.3V31.84a.22.22,0,0,1-.22.22H5.35a.22.22,0,0,1-.22-.22V7.3a.22.22,0,0,1,.22-.22H49.65A.22.22,0,0,1,49.88,7.3Z"/></svg>