<?xml version="1.0" encoding="utf-8"?>
<!-- Generator: Adobe Illustrator 20.1.0, SVG Export Plug-In . SVG Version: 6.00 Build 0)  -->
<svg version="1.1" id="Layer_1" xmlns="http://www.w3.org/2000/svg" xmlns:xlink="http://www.w3.org/1999/xlink" x="0px" y="0px"
	 viewBox="0 0 80 80" style="enable-background:new 0 0 80 80;" xml:space="preserve">
<style type="text/css">
	.st0{fill:#75D277;}
</style>
<title>notification-icons</title>
<path class="st0" d="M58.8,56c-3.4-3-7.9-2.8-10.9-5.5s-3.5-5.9-1.1-9.7c2.1-3.3,3.2-7.1,3.4-11c0-6.2-4.3-11.2-10.1-11.2
	s-10.1,5-10.1,11.2c0.1,3.9,1.3,7.7,3.4,11c2.4,3.7,1.8,7.1-1.1,9.7s-7.5,2.5-10.9,5.5c-3.7,3.2-3.4,8.5-3.1,11v13.3H62V67.1
	C62.3,64.6,62.5,59.3,58.8,56z"/>
</svg>
