<?xml version="1.0" encoding="utf-8"?>
<!-- Generator: Adobe Illustrator 21.1.0, SVG Export Plug-In . SVG Version: 6.00 Build 0)  -->
<svg version="1.1" id="Layer_1" xmlns="http://www.w3.org/2000/svg" xmlns:xlink="http://www.w3.org/1999/xlink" x="0px" y="0px"
	 viewBox="0 0 193.2 51.1" style="enable-background:new 0 0 193.2 51.1;" xml:space="preserve">
<style type="text/css">
	.st0{clip-path:url(#SVGID_2_);}
	.st1{clip-path:url(#SVGID_4_);fill:#676869;}
	.st2{clip-path:url(#SVGID_4_);fill:#75D277;}
	.st3{clip-path:url(#SVGID_4_);fill:#FFFFFF;}
	.st4{clip-path:url(#SVGID_4_);fill:#676768;}
</style>
<g id="HL_x5F_Light">
	<g>
		<defs>
			<rect id="SVGID_1_" width="193.2" height="51.1"/>
		</defs>
		<clipPath id="SVGID_2_">
			<use xlink:href="#SVGID_1_"  style="overflow:visible;"/>
		</clipPath>
		<g class="st0">
			<defs>
				<rect id="SVGID_3_" y="0" width="193.2" height="51.1"/>
			</defs>
			<clipPath id="SVGID_4_">
				<use xlink:href="#SVGID_3_"  style="overflow:visible;"/>
			</clipPath>
			<path class="st1" d="M183.7,11c-0.9,0-1.7,0.8-1.7,1.7v7.8c-1.8-1.6-4.1-2.5-6.7-2.5c-5.6,0-10.1,4.5-10.1,10.1
				s4.5,10.1,10.1,10.1s10.1-4.5,10.1-10.1V12.7C185.4,11.8,184.7,11,183.7,11 M182,28.1c0,3.7-3,6.7-6.7,6.7c-3.7,0-6.7-3-6.7-6.7
				s3-6.7,6.7-6.7C179,21.4,182,24.4,182,28.1"/>
			<path class="st1" d="M149.9,28.1c0-5.6-4.5-10.1-10.1-10.1c-5.6,0-10.1,4.5-10.1,10.1c0,5.6,4.5,10.1,10.1,10.1
				c2.6,0,4.9-1,6.7-2.5v0.8c0,0.9,0.8,1.7,1.7,1.7c0.9,0,1.7-0.8,1.7-1.7V28.1C149.9,28.1,149.9,28.1,149.9,28.1
				C149.9,28.1,149.9,28.1,149.9,28.1 M139.8,34.8c-3.7,0-6.7-3-6.7-6.7s3-6.7,6.7-6.7c3.7,0,6.7,3,6.7,6.7S143.5,34.8,139.8,34.8"
				/>
			<path class="st1" d="M124.6,18c-0.9,0-1.7,0.8-1.7,1.7v8.2v0.2c0,3.7-3,6.7-6.7,6.7s-6.7-3-6.7-6.7v-0.2v-8.2
				c0-0.9-0.8-1.7-1.7-1.7c-0.9,0-1.7,0.8-1.7,1.7v8.2v0.2c0,5,3.6,9.1,8.4,9.9v5.4c0,0.9,0.8,1.7,1.7,1.7s1.7-0.8,1.7-1.7V38
				c4.8-0.8,8.4-5,8.4-9.9v-0.2v-8.2C126.3,18.8,125.5,18,124.6,18"/>
			<path class="st1" d="M165.2,19.4c0-0.1,0-0.1-0.1-0.2c-0.1-0.3-0.2-0.5-0.4-0.7c-0.2-0.2-0.3-0.3-0.5-0.4
				c-0.2-0.1-0.4-0.1-0.7-0.1h0c-2.7,0-5.3,1.1-7.2,3c-1.9,1.9-2.9,4.4-2.9,7.1v8.4c0,0.9,0.8,1.7,1.7,1.7s1.7-0.8,1.7-1.7v-8.4
				c0-3.7,3-6.7,6.7-6.7c0.9,0,1.7-0.8,1.7-1.7C165.2,19.6,165.2,19.5,165.2,19.4"/>
			<path class="st1" d="M77.2,18c-0.9,0-1.7,0.8-1.7,1.7v16.8c0,0.9,0.8,1.7,1.7,1.7c0.9,0,1.7-0.8,1.7-1.7V19.7
				C78.9,18.8,78.2,18,77.2,18"/>
			<path class="st1" d="M71.1,18.2L71.1,18.2c-0.8-0.4-1.9-0.1-2.3,0.8l-6.9,13.7l-6.9-13.7c-0.4-0.8-1.4-1.2-2.3-0.8
				c-0.8,0.4-1.2,1.4-0.8,2.3l8.4,16.8c0.3,0.6,0.9,0.9,1.5,0.9s1.2-0.4,1.5-0.9l8.4-16.8C72.3,19.6,71.9,18.6,71.1,18.2"/>
			<path class="st1" d="M100.9,11c-0.9,0-1.7,0.8-1.7,1.7v7.8C97.4,19,95.1,18,92.5,18c-5.6,0-10.1,4.5-10.1,10.1
				s4.5,10.1,10.1,10.1c5.6,0,10.1-4.5,10.1-10.1V12.7C102.6,11.8,101.8,11,100.9,11 M99.2,28.1c0,3.7-3,6.7-6.7,6.7s-6.7-3-6.7-6.7
				s3-6.7,6.7-6.7S99.2,24.4,99.2,28.1"/>
			<path class="st1" d="M23.1,6.6c1.8,0,3.5,0.2,5.1,0.6c0.4,0.1,0.9-0.1,1-0.5c0.2-0.5-0.1-1.1-0.6-1.2c-1.8-0.4-3.6-0.7-5.5-0.7
				c-1.9,0-3.7,0.2-5.4,0.6c-0.5,0.1-0.8,0.7-0.6,1.2c0.2,0.4,0.6,0.7,1,0.5C19.7,6.8,21.4,6.6,23.1,6.6"/>
			<path class="st1" d="M34.1,9L34.1,9c-0.1,0.4,0.1,0.7,0.4,0.9c6.1,3.9,10.1,10.8,9.9,18.6c-0.3,11.4-9.6,20.6-21,20.7
				C11.5,49.4,1.8,39.8,1.8,27.9c0-7.6,4-14.3,10-18.1c0.3-0.2,0.5-0.5,0.4-0.9l0,0c-0.1-0.6-0.8-1-1.3-0.6C4.1,12.6-0.4,20.3,0,29
				c0.5,11.8,10.1,21.5,22,22c13.2,0.6,24.2-10,24.2-23.1c0-8.2-4.3-15.4-10.8-19.5C34.9,8.1,34.2,8.4,34.1,9"/>
			<path class="st2" d="M27.9,15.1c-1.1-0.2-2.3-0.4-3.4-0.4c-0.5,0-0.9,0-1.4,0c-1.4,0-2.8,0.1-4.1,0.4c-2.9,0.5-5.7,1.5-8.2,3
				c-1.6,1-3.2,2.1-4.6,3.4c-0.3,0.3-0.5,0.8-0.5,1.3L8,40.3c3.6,4.4,9,7.2,15.1,7.2s11.5-2.8,15.1-7.2l0.3-2.7
				c2.1-1.1,3.4-3.3,3.4-5.9c0-1.9-0.7-3.7-2-4.9l0.5-4.2c0.1-0.5-0.1-0.9-0.4-1.3c-2-1.9-4.3-3.5-6.8-4.6
				C31.6,16,29.8,15.5,27.9,15.1 M21,36.5c-0.7,0.3-1.4,0.5-2.2,0.5c-2.8,0-4.9-2.3-4.9-5.3s2.1-5.3,4.9-5.3c1.2,0,2.3,0.4,3.2,1.2
				c1.1,1,1.7,2.4,1.7,4.1C23.7,33.9,22.6,35.7,21,36.5 M38,36.5c-0.7,0.3-1.4,0.5-2.2,0.5c-2.8,0-4.9-2.3-4.9-5.3s2.1-5.3,4.9-5.3
				c1.2,0,2.3,0.4,3.2,1.2c1.1,1,1.7,2.4,1.7,4.1C40.6,33.9,39.6,35.7,38,36.5"/>
			<path class="st1" d="M15.1,15.9c-0.5-3.5-1.1-7.1-1.6-10c-1.4,0.1-2.7-0.8-3-2.2c-0.4-1.6,0.6-3.3,2.2-3.7
				c1.6-0.4,3.2,0.6,3.6,2.2C16.7,3.6,16,5,14.8,5.6l3.6,9.4l0,0C17.3,15.3,16.2,15.6,15.1,15.9L15.1,15.9z"/>
			<path class="st1" d="M27.9,15.1l3.6-9.4c-1.2-0.6-1.9-2-1.5-3.4c0.4-1.6,2.1-2.6,3.7-2.1c1.4,0.4,2.4,1.9,2.1,3.4
				C35.6,5,34.2,6,32.8,6c-0.5,2.9-1,6.5-1.6,10l0,0C30.1,15.6,29,15.3,27.9,15.1L27.9,15.1z"/>
			<path class="st3" d="M21,36.5c-0.7,0.3-1.4,0.5-2.2,0.5c-2.8,0-4.9-2.3-4.9-5.3s2.1-5.3,4.9-5.3c1.2,0,2.3,0.4,3.2,1.2
				c1.1,1,1.7,2.4,1.7,4.1C23.7,33.9,22.6,35.7,21,36.5"/>
			<path class="st3" d="M38,36.5c-0.7,0.3-1.4,0.5-2.2,0.5c-2.8,0-4.9-2.3-4.9-5.3s2.1-5.3,4.9-5.3c1.2,0,2.3,0.4,3.2,1.2
				c1.1,1,1.7,2.4,1.7,4.1C40.6,33.9,39.6,35.7,38,36.5"/>
			<path class="st1" d="M36.1,29.9c-0.3-0.5-0.8-0.7-1.3-0.7c-0.5,0-0.9,0.2-1.3,0.7c0,0,0,0,0,0c-0.3,0.5-0.5,1.1-0.5,1.8
				c0,0.7,0.2,1.3,0.5,1.8c0.4,0.5,0.8,0.7,1.3,0.8c0.5,0,1-0.2,1.3-0.7c0.4-0.5,0.6-1.1,0.6-1.8C36.6,30.9,36.5,30.4,36.1,29.9
				 M35.2,31.4c-0.3,0-0.6-0.3-0.6-0.6s0.3-0.6,0.6-0.6c0.3,0,0.6,0.3,0.6,0.6S35.5,31.4,35.2,31.4"/>
			<path class="st1" d="M19.1,29.9c-0.3-0.5-0.8-0.7-1.3-0.7c-0.5,0-0.9,0.2-1.3,0.7c0,0,0,0,0,0c-0.3,0.5-0.5,1.1-0.5,1.8
				c0,0.7,0.2,1.3,0.5,1.8c0.4,0.5,0.8,0.7,1.3,0.8c0.5,0,0.9-0.2,1.3-0.7c0.4-0.5,0.6-1.1,0.6-1.8C19.6,30.9,19.5,30.4,19.1,29.9
				 M18.2,31.4c-0.3,0-0.6-0.3-0.6-0.6s0.3-0.6,0.6-0.6c0.3,0,0.6,0.3,0.6,0.6S18.5,31.4,18.2,31.4"/>
			<path class="st4" d="M187.1,14.3L187.1,14.3c0-1.6,1.3-3,2.9-3c1.7,0,2.9,1.3,2.9,2.9v0c0,1.6-1.3,3-2.9,3
				C188.4,17.2,187.1,15.9,187.1,14.3 M192.7,14.3L192.7,14.3c0-1.5-1.1-2.6-2.6-2.6c-1.5,0-2.6,1.2-2.6,2.6v0
				c0,1.4,1.1,2.6,2.6,2.6C191.5,16.9,192.7,15.7,192.7,14.3 M188.8,13.1c0-0.2,0.2-0.4,0.4-0.4h1.1c0.8,0,1.3,0.3,1.3,1.1
				c0,0.4-0.2,0.8-0.6,0.9l0.4,0.5c0.1,0.1,0.1,0.2,0.1,0.3c0,0.2-0.2,0.4-0.4,0.4c-0.2,0-0.3-0.1-0.3-0.2l-0.7-0.8h-0.4v0.6
				c0,0.2-0.2,0.4-0.4,0.4c-0.2,0-0.4-0.2-0.4-0.4V13.1z M190.2,14.2c0.3,0,0.5-0.2,0.5-0.4c0-0.2-0.2-0.4-0.5-0.4h-0.6v0.7H190.2z"
				/>
			<path class="st4" d="M190.1,17.5c-1.8,0-3.2-1.4-3.2-3.2c0-1.8,1.4-3.2,3.2-3.2s3.2,1.4,3.2,3.2C193.2,16,191.8,17.5,190.1,17.5
				 M190.1,11.6c-1.4,0-2.6,1.2-2.6,2.7c0,1.5,1.2,2.7,2.6,2.7c1.4,0,2.6-1.2,2.6-2.7C192.7,12.8,191.5,11.6,190.1,11.6"/>
		</g>
	</g>
</g>
</svg>
