<svg width="128" height="128" xmlns="http://www.w3.org/2000/svg" xmlns:xlink="http://www.w3.org/1999/xlink">
 <style type="text/css">.st0{clip-path:url(#SVGID_2_);}
	.st1{clip-path:url(#SVGID_4_);fill:#676868;}
	.st2{clip-path:url(#SVGID_4_);fill:#7DC576;}
	.st3{clip-path:url(#SVGID_6_);fill:#FFFFFF;}
	.st4{clip-path:url(#SVGID_6_);fill:#676868;}</style>
 <g>
  <title>background</title>
  <rect fill="none" id="canvas_background" height="130" width="130" y="-1" x="-1"/>
 </g>
 <g>
  <title>Layer 1</title>
  <g stroke="null" id="Icon">
   <g stroke="null" id="svg_1">
    <defs stroke="null" transform="translate(7.4499969482421875,0) translate(0,1.0097391605377197) translate(0,-8.25) translate(-13.949996948242188,0) translate(0,8.949999809265137) translate(14.74999713897705,0) translate(1.9073486612342094e-7,-1.9073486612342094e-7) scale(1.1298701763153076) translate(-1.9073486612342094e-7,1.9073486612342094e-7) ">
     <rect stroke="null" height="109.5" width="99.2" id="SVGID_1_"/>
    </defs>
    <clipPath stroke="null" transform="translate(7.4499969482421875,0) translate(0,1.0097391605377197) translate(0,-8.25) translate(-13.949996948242188,0) translate(0,8.949999809265137) translate(14.74999713897705,0) translate(1.9073486612342094e-7,-1.9073486612342094e-7) scale(1.1298701763153076) translate(-1.9073486612342094e-7,1.9073486612342094e-7) " id="SVGID_2_">
     <use stroke="null" id="svg_2" xlink:href="#SVGID_1_"/>
    </clipPath>
    <g stroke="null" id="svg_3" class="st0">
     <defs stroke="null" transform="translate(7.4499969482421875,0) translate(0,1.0097391605377197) translate(0,-8.25) translate(-13.949996948242188,0) translate(0,8.949999809265137) translate(14.74999713897705,0) translate(1.9073486612342094e-7,-1.9073486612342094e-7) scale(1.1298701763153076) translate(-1.9073486612342094e-7,1.9073486612342094e-7) ">
      <rect stroke="null" height="109.5" width="99.2" y="0" id="SVGID_3_"/>
     </defs>
     <clipPath stroke="null" transform="translate(7.4499969482421875,0) translate(0,1.0097391605377197) translate(0,-8.25) translate(-13.949996948242188,0) translate(0,8.949999809265137) translate(14.74999713897705,0) translate(1.9073486612342094e-7,-1.9073486612342094e-7) scale(1.1298701763153076) translate(-1.9073486612342094e-7,1.9073486612342094e-7) " id="SVGID_4_">
      <use stroke="null" id="svg_4" xlink:href="#SVGID_3_"/>
     </clipPath>
     <path stroke="null" id="svg_5" d="m64.395454,17.844805c4.293507,0 8.361039,0.564935 12.315585,1.468831c1.016883,0.225974 2.146753,-0.338961 2.485714,-1.355844c0.451948,-1.242857 -0.225974,-2.598701 -1.468831,-2.824675c-4.293507,-1.016883 -8.7,-1.581818 -13.332468,-1.581818c-4.519481,0 -8.925974,0.564935 -13.106494,1.581818c-1.242857,0.338961 -2.033766,1.694805 -1.468831,2.937662c0.338961,1.016883 1.468831,1.581818 2.485714,1.355844c3.841559,-1.12987 7.909091,-1.581818 12.089611,-1.581818" class="st1"/>
     <path stroke="null" id="svg_6" d="m90.947403,23.607142l0,0c-0.112987,0.903896 0.225974,1.694805 1.016883,2.146753c14.801299,9.377922 24.63117,26.100001 24.066235,45.08182c-0.677922,27.568832 -23.388313,49.940262 -50.957145,50.279223c-28.811689,0.564935 -52.425976,-22.710391 -52.425976,-51.52208c0,-18.529871 9.716884,-34.687014 24.292209,-43.838963c0.790909,-0.451948 1.12987,-1.355844 1.016883,-2.146753l0,0c-0.225974,-1.468831 -1.920779,-2.372727 -3.276624,-1.468831c-16.496105,10.168832 -27.229871,28.924677 -26.212988,50.053249c1.355844,28.698702 24.63117,51.974028 53.329872,53.329872c32.088313,1.468831 58.753249,-24.179222 58.753249,-55.928574c0,-19.885715 -10.507793,-37.398703 -26.212988,-47.34156c-1.355844,-0.903896 -3.050649,-0.112987 -3.389611,1.355844" class="st1"/>
     <path stroke="null" id="svg_7" d="m76.033117,38.408442c-2.711688,-0.564935 -5.536364,-0.903896 -8.248052,-1.016883c-1.12987,-0.112987 -2.25974,-0.112987 -3.276624,-0.112987c-3.389611,0 -6.779221,0.225974 -10.055845,0.903896c-6.892208,1.242857 -13.784416,3.728572 -19.772728,7.231169c-3.954546,2.372727 -7.683117,5.197403 -11.072728,8.361039c-0.790909,0.790909 -1.242857,1.920779 -1.12987,3.163636l5.423377,42.82208c8.7,10.62078 21.919481,17.400001 36.607794,17.400001s27.907793,-6.779221 36.607794,-17.400001l0.790909,-6.44026c4.971429,-2.598701 8.135065,-8.022078 8.135065,-14.236364c0,-4.632468 -1.807792,-8.925974 -4.858442,-11.863637l1.242857,-10.281819c0.112987,-1.12987 -0.225974,-2.25974 -1.016883,-3.050649c-4.745455,-4.632468 -10.394806,-8.361039 -16.383118,-11.185715c-4.18052,-2.033766 -8.587013,-3.389611 -12.993507,-4.293507m-16.835066,51.974028c-1.581818,0.790909 -3.389611,1.355844 -5.423377,1.355844c-6.779221,0 -11.863637,-5.536364 -11.863637,-12.767533c0,-7.231169 5.084416,-12.767533 11.863637,-12.767533c3.050649,0 5.649351,1.12987 7.683117,2.937662c2.598701,2.25974 4.18052,5.762338 4.18052,9.829871c0.112987,5.084416 -2.485714,9.377922 -6.44026,11.411689m41.127274,0c-1.581818,0.790909 -3.389611,1.355844 -5.423377,1.355844c-6.779221,0 -11.863637,-5.536364 -11.863637,-12.767533c0,-7.231169 5.084416,-12.767533 11.863637,-12.767533c3.050649,0 5.649351,1.12987 7.683117,2.937662c2.598701,2.25974 4.18052,5.762338 4.18052,9.829871c0.112987,5.084416 -2.485714,9.377922 -6.44026,11.411689" class="st2"/>
     <path stroke="null" id="svg_8" d="m44.961687,40.442208c-1.355844,-8.474026 -2.711688,-17.174027 -3.841559,-24.179222c-3.276624,0.112987 -6.44026,-2.033766 -7.344156,-5.31039c-1.016883,-3.954546 1.355844,-7.909091 5.31039,-8.925974c3.728572,-0.903896 7.683117,1.468831 8.7,5.197403c0.903896,3.276624 -0.790909,6.779221 -3.728572,8.248052l8.812987,22.823378l0,0c-2.598701,0.564935 -5.197403,1.242857 -7.909091,2.146753l0,0z" class="st1"/>
     <path stroke="null" id="svg_9" d="m76.033117,38.295455l8.812987,-22.823378c-2.937662,-1.468831 -4.632468,-4.971429 -3.728572,-8.248052c1.016883,-3.954546 5.084416,-6.214286 9.038961,-5.084416c3.502598,1.016883 5.762338,4.632468 5.084416,8.248052c-0.677922,3.615585 -3.954546,6.101299 -7.457143,5.875325c-1.12987,7.005195 -2.485714,15.818182 -3.841559,24.292209l0,0c-2.598701,-0.903896 -5.197403,-1.694805 -7.909091,-2.25974l0,0z" class="st1"/>
    </g>
    <g stroke="null" id="svg_10" class="st0">
     <defs stroke="null" transform="translate(7.4499969482421875,0) translate(0,1.0097391605377197) translate(0,-8.25) translate(-13.949996948242188,0) translate(0,8.949999809265137) translate(14.74999713897705,0) translate(1.9073486612342094e-7,-1.9073486612342094e-7) scale(1.1298701763153076) translate(-1.9073486612342094e-7,1.9073486612342094e-7) ">
      <rect stroke="null" height="109.5" width="99.2" y="0" id="SVGID_5_"/>
     </defs>
     <clipPath stroke="null" transform="translate(7.4499969482421875,0) translate(0,1.0097391605377197) translate(0,-8.25) translate(-13.949996948242188,0) translate(0,8.949999809265137) translate(14.74999713897705,0) translate(1.9073486612342094e-7,-1.9073486612342094e-7) scale(1.1298701763153076) translate(-1.9073486612342094e-7,1.9073486612342094e-7) " id="SVGID_6_">
      <use stroke="null" id="svg_11" xlink:href="#SVGID_5_"/>
     </clipPath>
     <path stroke="null" id="svg_12" d="m59.198051,90.38247c-1.581818,0.790909 -3.389611,1.355844 -5.423377,1.355844c-6.779221,0 -11.863637,-5.536364 -11.863637,-12.767533c0,-7.231169 5.084416,-12.767533 11.863637,-12.767533c3.050649,0 5.649351,1.12987 7.683117,2.937662c2.598701,2.25974 4.18052,5.762338 4.18052,9.829871c0.112987,5.084416 -2.485714,9.377922 -6.44026,11.411689" class="st3"/>
     <path stroke="null" id="svg_13" d="m100.325326,90.38247c-1.581818,0.790909 -3.389611,1.355844 -5.423377,1.355844c-6.779221,0 -11.863637,-5.536364 -11.863637,-12.767533c0,-7.231169 5.084416,-12.767533 11.863637,-12.767533c3.050649,0 5.649351,1.12987 7.683117,2.937662c2.598701,2.25974 4.18052,5.762338 4.18052,9.829871c0.112987,5.084416 -2.485714,9.377922 -6.44026,11.411689" class="st3"/>
     <path stroke="null" id="svg_14" d="m95.918832,74.112339c-0.790909,-1.242857 -1.920779,-1.807792 -3.163636,-1.807792c-1.242857,0 -2.25974,0.564935 -3.050649,1.694805c0,0 0,0 0,0c-0.790909,1.242857 -1.242857,2.711688 -1.355844,4.406494c0,1.807792 0.451948,3.276624 1.242857,4.519481c0.903896,1.242857 1.807792,1.807792 3.050649,1.807792c1.242857,0 2.25974,-0.564935 3.163636,-1.807792c0.903896,-1.242857 1.355844,-2.598701 1.355844,-4.406494c-0.112987,-1.694805 -0.338961,-3.050649 -1.242857,-4.406494m-2.372727,3.954546c-0.790909,0 -1.468831,-0.677922 -1.468831,-1.468831c0,-0.790909 0.677922,-1.468831 1.468831,-1.468831c0.790909,0 1.468831,0.677922 1.468831,1.468831c0,0.790909 -0.564935,1.468831 -1.468831,1.468831" class="st4"/>
     <path stroke="null" id="svg_15" d="m54.791558,74.112339c-0.790909,-1.242857 -1.920779,-1.807792 -3.163636,-1.807792c-1.242857,0 -2.25974,0.564935 -3.050649,1.694805c0,0 0,0 0,0c-0.790909,1.242857 -1.242857,2.711688 -1.355844,4.406494c0,1.807792 0.451948,3.276624 1.242857,4.519481c0.903896,1.242857 1.807792,1.807792 3.050649,1.807792c1.242857,0 2.25974,-0.564935 3.163636,-1.807792c0.903896,-1.242857 1.355844,-2.598701 1.355844,-4.406494c-0.112987,-1.694805 -0.451948,-3.050649 -1.242857,-4.406494m-2.372727,3.954546c-0.790909,0 -1.468831,-0.677922 -1.468831,-1.468831c0,-0.790909 0.677922,-1.468831 1.468831,-1.468831c0.790909,0 1.468831,0.677922 1.468831,1.468831c0,0.790909 -0.677922,1.468831 -1.468831,1.468831" class="st4"/>
    </g>
   </g>
  </g>
 </g>
</svg>