<svg id="Layer_1" data-name="Layer 1" xmlns="http://www.w3.org/2000/svg" viewBox="0 0 50 53.86"><defs><style>.cls-1{fill:#75d277;}</style></defs><title>notifiactions(2)</title><path class="cls-1" d="M56.38,43.44a39.12,39.12,0,0,1-2.91-15,10.71,10.71,0,0,0-2.88-7.87,12.62,12.62,0,0,0-7.33-3.44.52.52,0,0,1-.43-.63,2.67,2.67,0,0,0,.06-.56,2.89,2.89,0,1,0-5.77.16,3.65,3.65,0,0,0,.06.43.52.52,0,0,1-.43.6,12.62,12.62,0,0,0-7.33,3.44,10.7,10.7,0,0,0-2.89,7.87,39.1,39.1,0,0,1-2.92,15,30.66,30.66,0,0,1-8.43,11.78.54.54,0,0,0-.19.44,3.91,3.91,0,0,0,3.84,3.57H31.79a.53.53,0,0,1,.53.5A7.7,7.7,0,0,0,40,66.93a7.7,7.7,0,0,0,7.68-7.19.53.53,0,0,1,.53-.5H61.16A3.91,3.91,0,0,0,65,55.66a.54.54,0,0,0-.19-.44A30.68,30.68,0,0,1,56.38,43.44Z" transform="translate(-15 -13.07)"/></svg>