<svg id="Layer_1" data-name="Layer 1" xmlns="http://www.w3.org/2000/svg" viewBox="0 0 80 80"><defs><style>.cls-1{fill:#fff;}.cls-2{opacity:0.5;}.cls-3{fill:#dad9d9;}.cls-4{fill:none;stroke:#676868;stroke-linecap:round;stroke-linejoin:round;stroke-width:3.93px;}</style></defs><title>Notifications_</title><circle class="cls-1" cx="39.04" cy="40.63" r="34.72"/><g class="cls-2"><path class="cls-3" d="M69.48,60.28c.22-1.94.45-7.95-2.39-10.49-2.6-2.33-6.11-2.25-8.4-4.27s-2.71-4.58-.88-7.46a17.11,17.11,0,0,0,2.58-8.47c0-4.77-3.33-8.64-7.77-8.64s-7.77,3.87-7.77,8.64c0,2.84-4.1,17.86-6.7,20.2C35.31,52.33,36.86,74,37.08,75.91"/><path class="cls-3" d="M8.6,60.28c-.22-1.94-.45-7.95,2.39-10.49,2.6-2.33,6.11-2.25,8.4-4.27s2.71-4.58.88-7.46a17.11,17.11,0,0,1-2.58-8.47C17.7,24.82,21,21,25.47,21s7.77,3.87,7.77,8.64c0,2.84,4.1,17.86,6.7,20.2C42.78,52.33,41.23,74,41,75.91"/></g><path class="cls-3" d="M60.91,67.72,39.44,75.35,17.17,67.72c-.28-2.51-.58-7.75,3.1-11,3.38-3,7.92-2.92,10.9-5.54s3.51-5.94,1.14-9.68a22.19,22.19,0,0,1-3.35-11c0-6.19,4.32-11.2,10.08-11.2s10.08,5,10.08,11.2a22.19,22.19,0,0,1-3.35,11c-2.37,3.74-1.88,7,1.14,9.68s7.52,2.51,10.9,5.54c3.68,3.3,3.38,9.65,3.1,12.16"/><circle class="cls-4" cx="39.04" cy="40.63" r="34.72"/></svg>