<svg id="Layer_1" data-name="Layer 1" xmlns="http://www.w3.org/2000/svg" viewBox="0 0 80 80"><defs><style>.cls-1{fill:#fff;}.cls-2{fill:#7dc576;}.cls-3{fill:none;stroke:#676868;stroke-linecap:round;stroke-linejoin:round;stroke-width:3.93px;}</style></defs><title>Notifications_</title><circle class="cls-1" cx="39.04" cy="40.57" r="34.72"/><path class="cls-2" d="M60.91,67.15,39.44,74.79,17.17,67.15c-.28-2.51-.58-7.75,3.1-11,3.38-3,7.92-2.92,10.9-5.54s3.51-5.94,1.14-9.68a22.19,22.19,0,0,1-3.35-11c0-6.19,4.32-11.2,10.08-11.2s10.08,5,10.08,11.2a22.19,22.19,0,0,1-3.35,11c-2.37,3.74-1.88,7,1.14,9.68s7.52,2.51,10.9,5.54c3.68,3.3,3.38,9.65,3.1,12.16"/><circle class="cls-3" cx="39.04" cy="40.07" r="34.72"/></svg>