<svg id="Layer_1" data-name="Layer 1" xmlns="http://www.w3.org/2000/svg" viewBox="0 0 70 50"><defs><style>.cls-1{fill:#44c0be;}.cls-2{fill:none;}.cls-2,.cls-3{stroke:#737373;stroke-linecap:round;stroke-linejoin:round;stroke-width:1.68px;}.cls-3{fill:#f7e352;}.cls-4{fill:#737373;}</style></defs><title>ps</title><rect class="cls-1" x="47.32" y="16.57" width="1.44" height="4.14"/><path class="cls-2" d="M31,13.84A13.13,13.13,0,1,0,44.18,27,13.15,13.15,0,0,0,31,13.84Z"/><polyline class="cls-2" points="31.5 18 31.5 28.09 27.83 23.69"/><path class="cls-3" d="M45.18,11.9a1.29,1.29,0,0,0-1,.77L36.55,25.89a1.29,1.29,0,0,0-.16,1.25,1.29,1.29,0,0,0,1.16.48H52.82A1.29,1.29,0,0,0,54,27.14a1.29,1.29,0,0,0-.16-1.25L46.19,12.67A1.29,1.29,0,0,0,45.18,11.9Z"/><path class="cls-4" d="M45.26,16.67a.63.63,0,0,0-.63.63v4.78a.63.63,0,0,0,.63.63h.1a.63.63,0,0,0,.63-.63V17.3a.63.63,0,0,0-.63-.63Z"/><circle class="cls-4" cx="45.31" cy="24.56" r="0.82"/></svg>