<?xml version="1.0" encoding="utf-8"?>
<!-- Generator: Adobe Illustrator 20.1.0, SVG Export Plug-In . SVG Version: 6.00 Build 0)  -->
<svg version="1.1" id="Layer_1" xmlns="http://www.w3.org/2000/svg" xmlns:xlink="http://www.w3.org/1999/xlink" x="0px" y="0px"
	 viewBox="0 0 80 80" style="enable-background:new 0 0 80 80;" xml:space="preserve">
<style type="text/css">
	.st0{fill:#D9D9D9;}
	.st1{opacity:0.5;fill:#D9D9D9;}
</style>
<title>notification-icons</title>
<path class="st0" d="M58.8,55.8c-3.4-3-7.9-2.9-10.9-5.5c-3-2.7-3.5-5.9-1.1-9.7c2.1-3.3,3.2-7.1,3.4-11c0-6.2-4.3-11.2-10.1-11.2
	s-10.1,5-10.1,11.2c0.1,3.9,1.3,7.7,3.4,11c2.4,3.7,1.8,7.1-1.1,9.7c-3,2.6-7.5,2.5-10.9,5.5c-3.7,3.2-3.4,8.5-3.1,11V80H62V66.8
	C62.3,64.3,62.5,59.1,58.8,55.8z"/>
<path class="st1" d="M68,48.9c-2.6-2.3-6.1-2.2-8.4-4.3c-2.3-2-2.7-4.6-0.9-7.5c1.6-2.5,2.5-5.5,2.6-8.5c0-4.8-3.3-8.6-7.8-8.6
	s-7.8,3.9-7.8,8.6c0,2.5-3.2,14.7-5.8,19c-2.5-4.3-5.8-16.5-5.8-19c0-4.8-3.3-8.6-7.8-8.6c-4.4,0-7.8,3.9-7.8,8.7
	c0.1,3,1,5.9,2.6,8.5c1.8,2.9,1.4,5.4-0.9,7.5c-2.3,2-5.8,1.9-8.4,4.3c-2.8,2.5-2.6,8.5-2.4,10.5V80h60.8V59.4
	C70.6,57.4,70.8,51.4,68,48.9z"/>
</svg>
