<svg width="109.5" height="109.5" xmlns="http://www.w3.org/2000/svg" xmlns:xlink="http://www.w3.org/1999/xlink">
 <style type="text/css">.st0{clip-path:url(#SVGID_2_);}
	.st1{clip-path:url(#SVGID_4_);fill:#7DC576;}
	.st2{clip-path:url(#SVGID_4_);fill:#676868;}
	.st3{clip-path:url(#SVGID_6_);fill:#FFFFFF;}
	.st4{clip-path:url(#SVGID_6_);fill:#676868;}</style>
 <g>
  <title>background</title>
  <rect fill="none" id="canvas_background" height="111.5" width="111.5" y="-1" x="-1"/>
 </g>
 <g>
  <title>Layer 1</title>
  <g id="Icon">
   <g id="svg_1">
    <defs transform="translate(-1,0) translate(-1,0) translate(-1,0) translate(-1,0) translate(-0.3000011444091797,0) translate(10.300000190734863,0) translate(-0.39999961853027344,0) ">
     <rect height="109.5" width="99.2" y="3.5" id="SVGID_1_"/>
    </defs>
    <clipPath transform="translate(-1,0) translate(-1,0) translate(-1,0) translate(-1,0) translate(-0.3000011444091797,0) translate(10.300000190734863,0) translate(-0.39999961853027344,0) " id="SVGID_2_">
     <use id="svg_2" xlink:href="#SVGID_1_"/>
    </clipPath>
    <g id="svg_3" class="st0">
     <defs transform="translate(-1,0) translate(-1,0) translate(-1,0) translate(-1,0) translate(-0.3000011444091797,0) translate(10.300000190734863,0) translate(-0.39999961853027344,0) ">
      <rect height="109.5" width="99.2" y="3.5" id="SVGID_3_"/>
     </defs>
     <clipPath transform="translate(-1,0) translate(-1,0) translate(-1,0) translate(-1,0) translate(-0.3000011444091797,0) translate(10.300000190734863,0) translate(-0.39999961853027344,0) " id="SVGID_4_">
      <use id="svg_4" xlink:href="#SVGID_3_"/>
     </clipPath>
     <path id="svg_5" d="m65.499999,35.9c-2.4,-0.5 -4.9,-0.8 -7.3,-0.9c-1,-0.1 -2,-0.1 -2.9,-0.1c-3,0 -6,0.2 -8.9,0.8c-6.1,1.1 -12.2,3.3 -17.5,6.4c-3.5,2.1 -6.8,4.6 -9.8,7.4c-0.7,0.7 -1.1,1.7 -1,2.8l4.7,37.7c7.7,9.4 19.4,15.4 32.4,15.4s24.7,-6 32.4,-15.4l0.7,-5.7c4.4,-2.3 7.2,-7.1 7.2,-12.6c0,-4.1 -1.6,-7.9 -4.3,-10.5l1.1,-9.1c0.1,-1 -0.2,-2 -0.9,-2.7c-4.2,-4.1 -9.2,-7.4 -14.5,-9.9c-3.6,-1.6 -7.5,-2.8 -11.4,-3.6m-14.9,46c-1.4,0.7 -3,1.2 -4.8,1.2c-6,0 -10.5,-4.9 -10.5,-11.3c0,-6.4 4.5,-11.3 10.5,-11.3c2.7,0 5,1 6.8,2.6c2.3,2 3.7,5.1 3.7,8.7c0.1,4.5 -2.2,8.3 -5.7,10.1m36.4,0c-1.4,0.7 -3,1.2 -4.8,1.2c-6,0 -10.5,-4.9 -10.5,-11.3c0,-6.4 4.5,-11.3 10.5,-11.3c2.7,0 5,1 6.8,2.6c2.3,2 3.7,5.1 3.7,8.7c0.1,4.5 -2.2,8.3 -5.7,10.1" class="st1"/>
     <path id="svg_6" d="m37.999999,37.7c-1.2,-7.5 -2.4,-15.2 -3.4,-21.4c-2.9,0.1 -5.7,-1.8 -6.5,-4.7c-0.9,-3.5 1.2,-7 4.7,-7.9c3.4,-0.8 6.9,1.3 7.8,4.6c0.8,2.9 -0.7,6 -3.3,7.3l7.8,20.2l0,0c-2.4,0.5 -4.7,1.1 -7.1,1.9l0,0z" class="st2"/>
     <path id="svg_7" d="m65.499999,35.8l7.8,-20.2c-2.6,-1.3 -4.1,-4.4 -3.3,-7.3c0.9,-3.5 4.5,-5.5 8,-4.5c3.1,0.9 5.1,4.1 4.5,7.3c-0.6,3.2 -3.5,5.4 -6.6,5.2c-1,6.2 -2.2,14 -3.4,21.5l0,0c-2.3,-0.8 -4.6,-1.5 -7,-2l0,0z" class="st2"/>
    </g>
    <g id="svg_8" class="st0">
     <defs transform="translate(-1,0) translate(-1,0) translate(-1,0) translate(-1,0) translate(-0.3000011444091797,0) translate(10.300000190734863,0) translate(-0.39999961853027344,0) ">
      <rect height="109.5" width="99.2" y="3.5" id="SVGID_5_"/>
     </defs>
     <clipPath transform="translate(-1,0) translate(-1,0) translate(-1,0) translate(-1,0) translate(-0.3000011444091797,0) translate(10.300000190734863,0) translate(-0.39999961853027344,0) " id="SVGID_6_">
      <use id="svg_9" xlink:href="#SVGID_5_"/>
     </clipPath>
     <path id="svg_10" d="m50.599999,81.9c-1.4,0.7 -3,1.2 -4.8,1.2c-6,0 -10.5,-4.9 -10.5,-11.3c0,-6.4 4.5,-11.3 10.5,-11.3c2.7,0 5,1 6.8,2.6c2.3,2 3.7,5.1 3.7,8.7c0.1,4.5 -2.2,8.3 -5.7,10.1" class="st3"/>
     <path id="svg_11" d="m86.999999,81.9c-1.4,0.7 -3,1.2 -4.8,1.2c-6,0 -10.5,-4.9 -10.5,-11.3c0,-6.4 4.5,-11.3 10.5,-11.3c2.7,0 5,1 6.8,2.6c2.3,2 3.7,5.1 3.7,8.7c0.1,4.5 -2.2,8.3 -5.7,10.1" class="st3"/>
     <path id="svg_12" d="m83.099999,67.5c-0.7,-1.1 -1.7,-1.6 -2.8,-1.6c-1.1,0 -2,0.5 -2.7,1.5c0,0 0,0 0,0c-0.7,1.1 -1.1,2.4 -1.2,3.9c0,1.6 0.4,2.9 1.1,4c0.8,1.1 1.6,1.6 2.7,1.6c1.1,0 2,-0.5 2.8,-1.6c0.8,-1.1 1.2,-2.3 1.2,-3.9c-0.1,-1.5 -0.3,-2.7 -1.1,-3.9m-2.1,3.5c-0.7,0 -1.3,-0.6 -1.3,-1.3c0,-0.7 0.6,-1.3 1.3,-1.3c0.7,0 1.3,0.6 1.3,1.3c0,0.7 -0.5,1.3 -1.3,1.3" class="st4"/>
     <path id="svg_13" d="m46.699999,67.5c-0.7,-1.1 -1.7,-1.6 -2.8,-1.6c-1.1,0 -2,0.5 -2.7,1.5c0,0 0,0 0,0c-0.7,1.1 -1.1,2.4 -1.2,3.9c0,1.6 0.4,2.9 1.1,4c0.8,1.1 1.6,1.6 2.7,1.6c1.1,0 2,-0.5 2.8,-1.6c0.8,-1.1 1.2,-2.3 1.2,-3.9c-0.1,-1.5 -0.4,-2.7 -1.1,-3.9m-2.1,3.5c-0.7,0 -1.3,-0.6 -1.3,-1.3c0,-0.7 0.6,-1.3 1.3,-1.3c0.7,0 1.3,0.6 1.3,1.3c0,0.7 -0.6,1.3 -1.3,1.3" class="st4"/>
    </g>
   </g>
  </g>
 </g>
</svg>