<?xml version="1.0" encoding="utf-8"?>
<!-- Generator: Adobe Illustrator 20.1.0, SVG Export Plug-In . SVG Version: 6.00 Build 0)  -->
<svg version="1.1" id="Layer_1" xmlns="http://www.w3.org/2000/svg" xmlns:xlink="http://www.w3.org/1999/xlink" x="0px" y="0px"
	 viewBox="0 0 221.4 87.1" style="enable-background:new 0 0 221.4 87.1;" xml:space="preserve">
<style type="text/css">
	.st0{fill:#75D277;}
	.st1{fill:#61B561;}
	.st2{fill:#676869;}
	.st3{fill:#FFFFFF;}
	.st4{fill:#676868;}
</style>
<g>
	<g>
		<g>
			<path class="st0" d="M40.1,66.6L40.1,66.6C27.4,66.6,17,56.3,17,43.5v0c0-12.8,10.3-23.1,23.1-23.1h0c12.8,0,23.1,10.3,23.1,23.1
				v0C63.2,56.3,52.9,66.6,40.1,66.6z"/>
		</g>
		<path class="st1" d="M58.8,33.4c-0.3,0-0.5,0-0.7,0c-0.5,0-1.2,0-1.5,0c-0.3,0-0.5,0-0.8,0c-5.5,0-10,4.5-10,10s4.5,10,10,10
			c0.3,0,0.5,0,0.7,0c0.5,0,1.2,0,1.5,0c0.3,0,0.5,0,0.8,0c5.5,0,10-4.5,10-10S64.3,33.4,58.8,33.4z"/>
		<g>
			<g>
				<path class="st1" d="M22.9,43.3c0-12,8.3-21.8,20-22.8c-0.7-0.1-1.3-0.1-2-0.1C28.2,20.4,18,30.7,18,43.3s10.2,22.9,22.9,22.9
					c0.7,0,1.4,0,2-0.1C31.2,65.1,22.9,55.3,22.9,43.3z"/>
			</g>
		</g>
		<g>
			<path class="st2" d="M40.1,68.5c-13.8,0-25-11.2-25-25s11.2-25,25-25s25,11.2,25,25S53.9,68.5,40.1,68.5z M40.1,22.3
				c-11.7,0-21.2,9.5-21.2,21.2s9.5,21.2,21.2,21.2s21.2-9.5,21.2-21.2S51.8,22.3,40.1,22.3z"/>
		</g>
		<g>
			<g>
				<circle class="st3" cx="59" cy="43.3" r="9.3"/>
				<path class="st2" d="M59,53.9c-5.8,0-10.6-4.8-10.6-10.6S53.2,32.8,59,32.8s10.6,4.8,10.6,10.6S64.8,53.9,59,53.9z M59,35.3
					c-4.4,0-8,3.6-8,8s3.6,8,8,8s8-3.6,8-8S63.4,35.3,59,35.3z"/>
			</g>
		</g>
		<path class="st1" d="M33,33.4c-0.3,0-0.5,0-0.7,0c-0.5,0-1.2,0-1.5,0c-0.3,0-0.5,0-0.8,0c-5.5,0-10,4.5-10,10s4.5,10,10,10
			c0.3,0,0.5,0,0.7,0c0.5,0,1.2,0,1.5,0c0.3,0,0.5,0,0.8,0c5.5,0,10-4.5,10-10S38.5,33.4,33,33.4z"/>
		<g>
			<g>
				<circle class="st3" cx="33.2" cy="43.3" r="9.3"/>
				<path class="st2" d="M33.2,53.9c-5.8,0-10.6-4.8-10.6-10.6s4.8-10.6,10.6-10.6s10.6,4.8,10.6,10.6S39,53.9,33.2,53.9z
					 M33.2,35.3c-4.4,0-8,3.6-8,8s3.6,8,8,8s8-3.6,8-8S37.6,35.3,33.2,35.3z"/>
			</g>
		</g>
		<g>
			<g>
				<ellipse class="st2" cx="31.7" cy="43.4" rx="3.9" ry="3.9"/>
			</g>
			<g>
				<ellipse class="st3" cx="32.5" cy="42.4" rx="1.2" ry="1.2"/>
			</g>
		</g>
		<g>
			<g>
				<ellipse class="st2" cx="57.3" cy="43.4" rx="3.9" ry="3.9"/>
			</g>
			<g>
				<ellipse class="st3" cx="58.2" cy="42.4" rx="1.2" ry="1.2"/>
			</g>
		</g>
	</g>
	<g>
		<g>
			<path class="st4" d="M89.7,33.6L85.5,46c-0.3,0.8-0.6,2-0.7,2.7C84.6,48,84.3,46.9,84,46l-4.3-12.4c-0.5-1.5-1.2-1.9-2.8-1.9
				h-2.8v3.8h0.7c0.5,0,0.7,0.1,0.8,0.6l6.7,18.1l0,0.1H87l6.7-18.2c0.2-0.5,0.3-0.6,0.8-0.6h0.8v-3.8h-2.8
				C90.9,31.7,90.3,32.1,89.7,33.6z"/>
			<rect x="97.9" y="31.7" class="st4" width="3.8" height="4"/>
			<path class="st4" d="M102,50.1v-9.8c0-1.6-0.7-2.3-2.3-2.3h-4v3.7h1.4c0.4,0,0.5,0.2,0.5,0.5V52c0,1.6,0.7,2.3,2.3,2.3h4v-3.7
				h-1.4C102.1,50.6,102,50.4,102,50.1z"/>
			<path class="st4" d="M113.1,37.6c-4.9,0-8.3,3.5-8.3,8.6c0,5,3.7,8.6,8.8,8.6c4,0,6.5-2.4,6.6-2.5l0.1-0.1l-1.8-3.1l-0.2,0.1
				c0,0-1.9,1.7-4.4,1.7c-2.5,0-4.3-1.6-4.6-4h11l0-0.2c0,0,0.1-1,0.1-1.5C120.4,40.7,117.4,37.6,113.1,37.6z M109.4,43.9
				c0.5-1.8,1.9-2.9,3.7-2.9c1.5,0,2.7,1.2,2.8,2.9H109.4z"/>
			<path class="st4" d="M142.1,39.7l-2.3,8.9c-0.1,0.3-0.1,0.6-0.2,0.9c-0.1-0.3-0.1-0.6-0.2-0.9l-3-10.6h-3.8l-3,10.6
				c-0.1,0.3-0.2,0.6-0.2,0.9c-0.1-0.3-0.1-0.6-0.2-0.9l-2.4-8.9c-0.3-1.3-1-1.8-2.4-1.8h-2.9v3.7h0.6c0.4,0,0.6,0.1,0.7,0.4
				l3.8,12.1l0,0.1h4.8l2.7-9.3c0.1-0.4,0.2-0.7,0.3-1c0.1,0.3,0.1,0.7,0.3,1l2.7,9.1l0,0.1h4.7l3.9-12.2c0.2-0.4,0.3-0.5,0.7-0.5
				h0.6v-3.7h-2.9C143.1,37.9,142.4,38.4,142.1,39.7z"/>
			<path class="st4" d="M156.8,37.6c-4.9,0-8.3,3.5-8.3,8.6c0,5,3.7,8.6,8.8,8.6c4,0,6.5-2.4,6.6-2.5l0.1-0.1l-1.8-3.1l-0.2,0.1
				c0,0-1.9,1.7-4.4,1.7c-2.5,0-4.3-1.6-4.6-4h11l0-0.2c0,0,0.1-1,0.1-1.5C164.1,40.7,161.2,37.6,156.8,37.6z M153.1,43.9
				c0.5-1.8,1.9-2.9,3.7-2.9c1.5,0,2.7,1.2,2.8,2.9H153.1z"/>
			<path class="st4" d="M182.4,50.6c-0.3,0-0.5-0.2-0.5-0.5V34c0-1.6-0.7-2.3-2.3-2.3h-4v3.7h1.4c0.4,0,0.5,0.2,0.5,0.5v2.8
				c0,0.2,0,0.3,0,0.5c-0.5-0.6-1.8-1.7-4.5-1.7c-4.5,0-7.5,3.4-7.5,8.6s2.9,8.6,7.3,8.6c2.8,0,4.3-1.6,4.9-2.3v0.1
				c0,0.7,0.3,1.8,2.1,1.8h3.8v-3.7H182.4z M177.6,46.1c0,3.6-2,4.9-3.9,4.9c-2.3,0-3.8-2-3.8-4.9c0-2.9,1.5-4.8,3.9-4.8
				C176.5,41.3,177.6,43.8,177.6,46.1z"/>
		</g>
		<g>
			<path class="st0" d="M186.8,51.7h2.8V34.2h-2.8v-2.5h9v2.5H193v17.5h2.9v2.6h-9V51.7z"/>
			<path class="st0" d="M198.7,40.4H196v-2.5h2.8v-4.4h3.2v4.4h3.9v2.5H202V48c0,3.3,2.3,3.6,3.5,3.6c0.5,0,0.7,0,0.7,0v2.7
				c0,0-0.5,0.1-1.1,0.1c-2.1,0-6.4-0.6-6.4-6.1V40.4z"/>
		</g>
	</g>
</g>
<g>
	<g>
		<path class="st4" d="M82.5,61.1h5.7v0.8h-4.8v2.7h4.3v0.8h-4.3v2.7h4.8v0.8h-5.7V61.1z"/>
		<path class="st4" d="M95.8,61.1h0.8l4.9,6.3v-6.3h0.9v7.8h-0.7l-5.1-6.4v6.4h-0.9V61.1z"/>
		<path class="st4" d="M112.6,61.9H110v-0.8h6.2v0.8h-2.6v7h-0.9V61.9z"/>
		<path class="st4" d="M123.7,61.1h5.7v0.8h-4.8v2.7h4.3v0.8h-4.3v2.7h4.8v0.8h-5.7V61.1z"/>
		<path class="st4" d="M137.1,61.1h3.4c1,0,1.7,0.3,2.2,0.8c0.4,0.4,0.6,0.9,0.6,1.5v0c0,1.3-0.9,2.1-2.1,2.3l2.4,3.2h-1.1l-2.3-3
			H138v3h-0.9V61.1z M140.4,65.1c1.2,0,2-0.6,2-1.6v0c0-1-0.7-1.5-2-1.5H138v3.2H140.4z"/>
		<path class="st4" d="M151.1,61.1h2.9c1.8,0,2.9,0.9,2.9,2.5v0c0,1.7-1.4,2.6-3.1,2.6H152v2.8h-0.9V61.1z M153.9,65.3
			c1.3,0,2.1-0.7,2.1-1.7v0c0-1.1-0.8-1.7-2.1-1.7h-2v3.4H153.9z"/>
		<path class="st4" d="M164.5,61.1h3.4c1,0,1.7,0.3,2.2,0.8c0.4,0.4,0.6,0.9,0.6,1.5v0c0,1.3-0.9,2.1-2.1,2.3l2.4,3.2h-1.1l-2.3-3
			h-2.2v3h-0.9V61.1z M167.8,65.1c1.2,0,2-0.6,2-1.6v0c0-1-0.7-1.5-2-1.5h-2.4v3.2H167.8z"/>
		<path class="st4" d="M178.5,61.1h0.9v7.8h-0.9V61.1z"/>
		<path class="st4" d="M187.1,67.8l0.5-0.6c0.8,0.7,1.6,1.1,2.7,1.1c1.1,0,1.7-0.6,1.7-1.3v0c0-0.7-0.4-1.1-2-1.5
			c-1.8-0.4-2.6-1-2.6-2.3v0c0-1.2,1.1-2.1,2.6-2.1c1.1,0,2,0.3,2.8,1l-0.5,0.7c-0.7-0.6-1.5-0.9-2.3-0.9c-1,0-1.7,0.6-1.7,1.3v0
			c0,0.7,0.4,1.2,2.1,1.5c1.7,0.4,2.6,1,2.6,2.2v0c0,1.3-1.1,2.2-2.7,2.2C189,69,188,68.6,187.1,67.8z"/>
		<path class="st4" d="M200.6,61.1h5.7v0.8h-4.8v2.7h4.3v0.8h-4.3v2.7h4.8v0.8h-5.7V61.1z"/>
	</g>
</g>
</svg>
